<mxfile host="app.diagrams.net" modified="2024-05-19T11:18:21.182Z" agent="Mozilla/5.0 (Windows NT 10.0; Win64; x64) AppleWebKit/537.36 (KHTML, like Gecko) Chrome/124.0.0.0 Safari/537.36" etag="9b7kwCVspNZshhYoIEf2" version="24.4.4" type="device">
  <diagram name="Page-1" id="MRbkEJuFoaLIfwPKsgAW">
    <mxGraphModel dx="1276" dy="508" grid="1" gridSize="10" guides="1" tooltips="1" connect="1" arrows="1" fold="1" page="1" pageScale="1" pageWidth="827" pageHeight="1169" math="0" shadow="0">
      <root>
        <mxCell id="0" />
        <mxCell id="1" parent="0" />
        <mxCell id="f3_O5MrYXjnlOcfUvgj--1" value="Sorting" style="swimlane;fontStyle=1;align=center;verticalAlign=middle;childLayout=stackLayout;horizontal=1;startSize=30;horizontalStack=0;resizeParent=0;resizeLast=1;container=0;fontColor=#000000;collapsible=0;rounded=1;arcSize=30;strokeColor=#ff0000;fillColor=#ffffc0;swimlaneFillColor=#ffffc0;dropTarget=0;" parent="1" vertex="1">
          <mxGeometry x="123" y="46" width="269" height="51" as="geometry" />
        </mxCell>
        <mxCell id="f3_O5MrYXjnlOcfUvgj--2" value="&lt;span style=&quot;text-wrap: nowrap;&quot;&gt;Listing Ingredients &amp;amp; utensils _ Estimate time&amp;nbsp;&lt;/span&gt;" style="text;html=1;strokeColor=none;fillColor=none;align=center;verticalAlign=middle;spacingLeft=4;spacingRight=4;whiteSpace=wrap;overflow=hidden;rotatable=0;fontColor=#000000;" parent="f3_O5MrYXjnlOcfUvgj--1" vertex="1">
          <mxGeometry y="30" width="269" height="21" as="geometry" />
        </mxCell>
        <mxCell id="f3_O5MrYXjnlOcfUvgj--4" value="" style="ellipse;html=1;shape=startState;fillColor=#000000;strokeColor=#ff0000;" parent="1" vertex="1">
          <mxGeometry x="2" y="60" width="30" height="30" as="geometry" />
        </mxCell>
        <mxCell id="f3_O5MrYXjnlOcfUvgj--5" value="" style="edgeStyle=orthogonalEdgeStyle;html=1;verticalAlign=bottom;endArrow=open;endSize=8;strokeColor=#ff0000;rounded=0;entryX=0;entryY=0;entryDx=0;entryDy=0;exitX=0.876;exitY=0.52;exitDx=0;exitDy=0;exitPerimeter=0;" parent="1" source="f3_O5MrYXjnlOcfUvgj--4" target="f3_O5MrYXjnlOcfUvgj--2" edge="1">
          <mxGeometry relative="1" as="geometry">
            <mxPoint x="72" y="76" as="targetPoint" />
            <Array as="points">
              <mxPoint x="28" y="76" />
              <mxPoint x="28" y="76" />
            </Array>
          </mxGeometry>
        </mxCell>
        <mxCell id="PkdYmBJGoi_NKcwWlhfH-1" value="get data" style="edgeLabel;html=1;align=center;verticalAlign=middle;resizable=0;points=[];" parent="f3_O5MrYXjnlOcfUvgj--5" vertex="1" connectable="0">
          <mxGeometry x="-0.5835" y="-1" relative="1" as="geometry">
            <mxPoint x="16" y="-14" as="offset" />
          </mxGeometry>
        </mxCell>
        <mxCell id="f3_O5MrYXjnlOcfUvgj--11" value="" style="edgeStyle=orthogonalEdgeStyle;html=1;verticalAlign=bottom;endArrow=open;endSize=8;strokeColor=#ff0000;rounded=0;exitX=1;exitY=0;exitDx=0;exitDy=0;entryX=0;entryY=0.5;entryDx=0;entryDy=0;" parent="1" source="f3_O5MrYXjnlOcfUvgj--2" target="Co19xIYeGE2DdEXJ1eOR-2" edge="1">
          <mxGeometry relative="1" as="geometry">
            <mxPoint x="450" y="76" as="targetPoint" />
            <Array as="points">
              <mxPoint x="499" y="76" />
            </Array>
          </mxGeometry>
        </mxCell>
        <mxCell id="f3_O5MrYXjnlOcfUvgj--42" value="Two Arms Movement" style="swimlane;fontStyle=1;align=center;verticalAlign=middle;childLayout=stackLayout;horizontal=1;startSize=30;horizontalStack=0;resizeParent=0;resizeLast=1;container=0;fontColor=#000000;collapsible=0;rounded=1;arcSize=30;strokeColor=#ff0000;fillColor=#ffffc0;swimlaneFillColor=#ffffc0;dropTarget=0;" parent="1" vertex="1">
          <mxGeometry x="250" y="480" width="524" height="340" as="geometry" />
        </mxCell>
        <mxCell id="f3_O5MrYXjnlOcfUvgj--43" value="Arm Movement" style="swimlane;fontStyle=1;align=center;verticalAlign=middle;childLayout=stackLayout;horizontal=1;startSize=30;horizontalStack=0;resizeParent=0;resizeLast=1;container=0;fontColor=#000000;collapsible=0;rounded=1;arcSize=30;strokeColor=#ff0000;fillColor=#ffffc0;swimlaneFillColor=#ffffc0;dropTarget=0;" parent="1" vertex="1">
          <mxGeometry x="274" y="650" width="140" height="60" as="geometry" />
        </mxCell>
        <mxCell id="f3_O5MrYXjnlOcfUvgj--44" value="Do_Move" style="text;html=1;strokeColor=none;fillColor=none;align=center;verticalAlign=middle;spacingLeft=4;spacingRight=4;whiteSpace=wrap;overflow=hidden;rotatable=0;fontColor=#000000;" parent="f3_O5MrYXjnlOcfUvgj--43" vertex="1">
          <mxGeometry y="30" width="140" height="30" as="geometry" />
        </mxCell>
        <mxCell id="f3_O5MrYXjnlOcfUvgj--45" value="" style="edgeStyle=orthogonalEdgeStyle;html=1;verticalAlign=bottom;endArrow=open;endSize=8;strokeColor=#ff0000;rounded=0;entryX=0.5;entryY=0;entryDx=0;entryDy=0;" parent="1" source="f3_O5MrYXjnlOcfUvgj--43" target="f3_O5MrYXjnlOcfUvgj--54" edge="1">
          <mxGeometry relative="1" as="geometry">
            <mxPoint x="450" y="770" as="targetPoint" />
          </mxGeometry>
        </mxCell>
        <mxCell id="f3_O5MrYXjnlOcfUvgj--46" value="Arm Movement" style="swimlane;fontStyle=1;align=center;verticalAlign=middle;childLayout=stackLayout;horizontal=1;startSize=30;horizontalStack=0;resizeParent=0;resizeLast=1;container=0;fontColor=#000000;collapsible=0;rounded=1;arcSize=30;strokeColor=#ff0000;fillColor=#ffffc0;swimlaneFillColor=#ffffc0;dropTarget=0;" parent="1" vertex="1">
          <mxGeometry x="427" y="650" width="140" height="60" as="geometry" />
        </mxCell>
        <mxCell id="f3_O5MrYXjnlOcfUvgj--47" value="Do_Move" style="text;html=1;strokeColor=none;fillColor=none;align=center;verticalAlign=middle;spacingLeft=4;spacingRight=4;whiteSpace=wrap;overflow=hidden;rotatable=0;fontColor=#000000;" parent="f3_O5MrYXjnlOcfUvgj--46" vertex="1">
          <mxGeometry y="30" width="140" height="30" as="geometry" />
        </mxCell>
        <mxCell id="f3_O5MrYXjnlOcfUvgj--48" value="" style="edgeStyle=orthogonalEdgeStyle;html=1;verticalAlign=bottom;endArrow=open;endSize=8;strokeColor=#ff0000;rounded=0;entryX=0.5;entryY=0;entryDx=0;entryDy=0;" parent="1" source="f3_O5MrYXjnlOcfUvgj--46" target="f3_O5MrYXjnlOcfUvgj--49" edge="1">
          <mxGeometry relative="1" as="geometry">
            <mxPoint x="640" y="760" as="targetPoint" />
          </mxGeometry>
        </mxCell>
        <mxCell id="f3_O5MrYXjnlOcfUvgj--49" value="End_Effector Motion" style="swimlane;fontStyle=1;align=center;verticalAlign=middle;childLayout=stackLayout;horizontal=1;startSize=30;horizontalStack=0;resizeParent=0;resizeLast=1;container=0;fontColor=#000000;collapsible=0;rounded=1;arcSize=30;strokeColor=#ff0000;fillColor=#ffffc0;swimlaneFillColor=#ffffc0;dropTarget=0;" parent="1" vertex="1">
          <mxGeometry x="425" y="744" width="160" height="60" as="geometry" />
        </mxCell>
        <mxCell id="f3_O5MrYXjnlOcfUvgj--51" value="Do_Move_endeffector" style="text;html=1;strokeColor=none;fillColor=none;align=center;verticalAlign=middle;spacingLeft=4;spacingRight=4;whiteSpace=wrap;overflow=hidden;rotatable=0;fontColor=#000000;" parent="f3_O5MrYXjnlOcfUvgj--49" vertex="1">
          <mxGeometry y="30" width="160" height="30" as="geometry" />
        </mxCell>
        <mxCell id="f3_O5MrYXjnlOcfUvgj--52" value="Needs both hands" style="rhombus;whiteSpace=wrap;html=1;fontColor=#000000;fillColor=#ffffc0;strokeColor=#ff0000;" parent="1" vertex="1">
          <mxGeometry x="499" y="520" width="170" height="40" as="geometry" />
        </mxCell>
        <mxCell id="f3_O5MrYXjnlOcfUvgj--53" value="yes" style="edgeStyle=orthogonalEdgeStyle;html=1;align=left;verticalAlign=top;endArrow=open;endSize=8;strokeColor=#ff0000;rounded=0;exitX=0;exitY=0.5;exitDx=0;exitDy=0;" parent="1" source="f3_O5MrYXjnlOcfUvgj--52" edge="1">
          <mxGeometry x="0.2591" y="-27" relative="1" as="geometry">
            <mxPoint x="417" y="620" as="targetPoint" />
            <mxPoint as="offset" />
          </mxGeometry>
        </mxCell>
        <mxCell id="f3_O5MrYXjnlOcfUvgj--54" value="End_Effector Motion" style="swimlane;fontStyle=1;align=center;verticalAlign=middle;childLayout=stackLayout;horizontal=1;startSize=30;horizontalStack=0;resizeParent=0;resizeLast=1;container=0;fontColor=#000000;collapsible=0;rounded=1;arcSize=30;strokeColor=#ff0000;fillColor=#ffffc0;swimlaneFillColor=#ffffc0;dropTarget=0;" parent="1" vertex="1">
          <mxGeometry x="255" y="743" width="160" height="60" as="geometry" />
        </mxCell>
        <mxCell id="f3_O5MrYXjnlOcfUvgj--56" value="Do_Move_endeffector" style="text;html=1;strokeColor=none;fillColor=none;align=center;verticalAlign=middle;spacingLeft=4;spacingRight=4;whiteSpace=wrap;overflow=hidden;rotatable=0;fontColor=#000000;" parent="f3_O5MrYXjnlOcfUvgj--54" vertex="1">
          <mxGeometry y="30" width="160" height="30" as="geometry" />
        </mxCell>
        <mxCell id="f3_O5MrYXjnlOcfUvgj--57" value="" style="edgeStyle=orthogonalEdgeStyle;html=1;verticalAlign=bottom;endArrow=open;endSize=8;strokeColor=#ff0000;rounded=0;exitX=0.5;exitY=1;exitDx=0;exitDy=0;entryX=0.5;entryY=0;entryDx=0;entryDy=0;" parent="1" target="f3_O5MrYXjnlOcfUvgj--43" edge="1">
          <mxGeometry relative="1" as="geometry">
            <mxPoint x="400" y="670" as="targetPoint" />
            <mxPoint x="417" y="620" as="sourcePoint" />
          </mxGeometry>
        </mxCell>
        <mxCell id="f3_O5MrYXjnlOcfUvgj--58" value="Left" style="edgeLabel;html=1;align=center;verticalAlign=middle;resizable=0;points=[];" parent="f3_O5MrYXjnlOcfUvgj--57" vertex="1" connectable="0">
          <mxGeometry x="0.3743" y="-2" relative="1" as="geometry">
            <mxPoint x="24" y="-10" as="offset" />
          </mxGeometry>
        </mxCell>
        <mxCell id="f3_O5MrYXjnlOcfUvgj--59" value="" style="edgeStyle=orthogonalEdgeStyle;html=1;verticalAlign=bottom;endArrow=open;endSize=8;strokeColor=#ff0000;rounded=0;exitX=0.5;exitY=1;exitDx=0;exitDy=0;entryX=0.5;entryY=0;entryDx=0;entryDy=0;" parent="1" target="f3_O5MrYXjnlOcfUvgj--46" edge="1">
          <mxGeometry relative="1" as="geometry">
            <mxPoint x="660" y="780" as="targetPoint" />
            <mxPoint x="417" y="620" as="sourcePoint" />
          </mxGeometry>
        </mxCell>
        <mxCell id="f3_O5MrYXjnlOcfUvgj--60" value="Right" style="edgeLabel;html=1;align=center;verticalAlign=middle;resizable=0;points=[];" parent="f3_O5MrYXjnlOcfUvgj--59" vertex="1" connectable="0">
          <mxGeometry x="0.2788" y="-1" relative="1" as="geometry">
            <mxPoint x="-23" y="-12" as="offset" />
          </mxGeometry>
        </mxCell>
        <mxCell id="f3_O5MrYXjnlOcfUvgj--63" value="Arm Movement" style="swimlane;fontStyle=1;align=center;verticalAlign=middle;childLayout=stackLayout;horizontal=1;startSize=30;horizontalStack=0;resizeParent=0;resizeLast=1;container=0;fontColor=#000000;collapsible=0;rounded=1;arcSize=30;strokeColor=#ff0000;fillColor=#ffffc0;swimlaneFillColor=#ffffc0;dropTarget=0;" parent="1" vertex="1">
          <mxGeometry x="616" y="650" width="140" height="60" as="geometry" />
        </mxCell>
        <mxCell id="f3_O5MrYXjnlOcfUvgj--64" value="Do_Move" style="text;html=1;strokeColor=none;fillColor=none;align=center;verticalAlign=middle;spacingLeft=4;spacingRight=4;whiteSpace=wrap;overflow=hidden;rotatable=0;fontColor=#000000;" parent="f3_O5MrYXjnlOcfUvgj--63" vertex="1">
          <mxGeometry y="30" width="140" height="30" as="geometry" />
        </mxCell>
        <mxCell id="f3_O5MrYXjnlOcfUvgj--65" value="End_Effector Motion" style="swimlane;fontStyle=1;align=center;verticalAlign=middle;childLayout=stackLayout;horizontal=1;startSize=30;horizontalStack=0;resizeParent=0;resizeLast=1;container=0;fontColor=#000000;collapsible=0;rounded=1;arcSize=30;strokeColor=#ff0000;fillColor=#ffffc0;swimlaneFillColor=#ffffc0;dropTarget=0;" parent="1" vertex="1">
          <mxGeometry x="606" y="744" width="160" height="60" as="geometry" />
        </mxCell>
        <mxCell id="f3_O5MrYXjnlOcfUvgj--67" value="Do_Move_endeffector" style="text;html=1;strokeColor=none;fillColor=none;align=center;verticalAlign=middle;spacingLeft=4;spacingRight=4;whiteSpace=wrap;overflow=hidden;rotatable=0;fontColor=#000000;" parent="f3_O5MrYXjnlOcfUvgj--65" vertex="1">
          <mxGeometry y="30" width="160" height="30" as="geometry" />
        </mxCell>
        <mxCell id="f3_O5MrYXjnlOcfUvgj--70" value="no" style="edgeStyle=orthogonalEdgeStyle;html=1;align=left;verticalAlign=top;endArrow=open;endSize=8;strokeColor=#ff0000;rounded=0;exitX=1;exitY=0.5;exitDx=0;exitDy=0;" parent="1" source="f3_O5MrYXjnlOcfUvgj--52" target="f3_O5MrYXjnlOcfUvgj--63" edge="1">
          <mxGeometry x="-0.2598" y="4" relative="1" as="geometry">
            <mxPoint x="726" y="559" as="targetPoint" />
            <mxPoint as="offset" />
            <mxPoint x="509" y="550" as="sourcePoint" />
          </mxGeometry>
        </mxCell>
        <mxCell id="f3_O5MrYXjnlOcfUvgj--73" value="" style="edgeStyle=orthogonalEdgeStyle;html=1;align=left;verticalAlign=top;endArrow=open;endSize=8;strokeColor=#ff0000;rounded=0;exitX=0.5;exitY=1;exitDx=0;exitDy=0;entryX=0;entryY=0;entryDx=0;entryDy=0;" parent="1" target="f3_O5MrYXjnlOcfUvgj--77" edge="1" source="f3_O5MrYXjnlOcfUvgj--56">
          <mxGeometry x="0.0263" y="-10" relative="1" as="geometry">
            <mxPoint x="470" y="740" as="targetPoint" />
            <mxPoint as="offset" />
            <mxPoint x="335" y="653" as="sourcePoint" />
            <Array as="points">
              <mxPoint x="335" y="860" />
              <mxPoint x="210" y="860" />
              <mxPoint x="210" y="250" />
            </Array>
          </mxGeometry>
        </mxCell>
        <mxCell id="f3_O5MrYXjnlOcfUvgj--74" value="" style="edgeStyle=orthogonalEdgeStyle;html=1;align=left;verticalAlign=top;endArrow=open;endSize=8;strokeColor=#ff0000;rounded=0;exitX=0.5;exitY=1;exitDx=0;exitDy=0;entryX=0;entryY=0;entryDx=0;entryDy=0;" parent="1" target="f3_O5MrYXjnlOcfUvgj--77" edge="1" source="f3_O5MrYXjnlOcfUvgj--51">
          <mxGeometry x="0.0263" y="-10" relative="1" as="geometry">
            <mxPoint x="470" y="740" as="targetPoint" />
            <mxPoint as="offset" />
            <mxPoint x="505" y="654" as="sourcePoint" />
            <Array as="points">
              <mxPoint x="505" y="870" />
              <mxPoint x="200" y="870" />
              <mxPoint x="200" y="250" />
            </Array>
          </mxGeometry>
        </mxCell>
        <mxCell id="f3_O5MrYXjnlOcfUvgj--75" value="" style="edgeStyle=orthogonalEdgeStyle;html=1;align=left;verticalAlign=top;endArrow=open;endSize=8;strokeColor=#ff0000;rounded=0;exitX=0.5;exitY=1;exitDx=0;exitDy=0;entryX=1;entryY=0;entryDx=0;entryDy=0;" parent="1" target="f3_O5MrYXjnlOcfUvgj--77" edge="1" source="f3_O5MrYXjnlOcfUvgj--67">
          <mxGeometry x="0.0263" y="-10" relative="1" as="geometry">
            <mxPoint x="800" y="380" as="targetPoint" />
            <mxPoint as="offset" />
            <mxPoint x="686" y="654" as="sourcePoint" />
            <Array as="points">
              <mxPoint x="686" y="870" />
              <mxPoint x="790" y="870" />
              <mxPoint x="790" y="250" />
            </Array>
          </mxGeometry>
        </mxCell>
        <mxCell id="f3_O5MrYXjnlOcfUvgj--76" value="Preparing &amp; Cooking" style="swimlane;fontStyle=1;align=center;verticalAlign=middle;childLayout=stackLayout;horizontal=1;startSize=30;horizontalStack=0;resizeParent=0;resizeLast=1;container=0;fontColor=#000000;collapsible=0;rounded=1;arcSize=30;strokeColor=#ff0000;fillColor=#ffffc0;swimlaneFillColor=#ffffc0;dropTarget=0;" parent="1" vertex="1">
          <mxGeometry x="503" y="220" width="160" height="60" as="geometry" />
        </mxCell>
        <mxCell id="f3_O5MrYXjnlOcfUvgj--77" value="Follow_script" style="text;html=1;strokeColor=none;fillColor=none;align=center;verticalAlign=middle;spacingLeft=4;spacingRight=4;whiteSpace=wrap;overflow=hidden;rotatable=0;fontColor=#000000;" parent="f3_O5MrYXjnlOcfUvgj--76" vertex="1">
          <mxGeometry y="30" width="160" height="30" as="geometry" />
        </mxCell>
        <mxCell id="f3_O5MrYXjnlOcfUvgj--79" value="" style="edgeStyle=orthogonalEdgeStyle;html=1;verticalAlign=bottom;endArrow=open;endSize=8;strokeColor=#4C0099;rounded=0;exitX=0;exitY=0.75;exitDx=0;exitDy=0;entryX=0.532;entryY=-0.033;entryDx=0;entryDy=0;entryPerimeter=0;" parent="1" source="f3_O5MrYXjnlOcfUvgj--77" target="f3_O5MrYXjnlOcfUvgj--80" edge="1">
          <mxGeometry relative="1" as="geometry">
            <mxPoint x="90" y="320" as="targetPoint" />
            <mxPoint x="593" y="290" as="sourcePoint" />
            <Array as="points">
              <mxPoint x="503" y="290" />
              <mxPoint x="119" y="290" />
            </Array>
          </mxGeometry>
        </mxCell>
        <mxCell id="f3_O5MrYXjnlOcfUvgj--80" value="Fault State" style="swimlane;fontStyle=1;align=center;verticalAlign=middle;childLayout=stackLayout;horizontal=1;startSize=30;horizontalStack=0;resizeParent=0;resizeLast=1;container=0;fontColor=#000000;collapsible=0;rounded=1;arcSize=30;strokeColor=#4C0099;fillColor=#ffffc0;swimlaneFillColor=#ffffc0;dropTarget=0;" parent="1" vertex="1">
          <mxGeometry x="34" y="330" width="160" height="60" as="geometry" />
        </mxCell>
        <mxCell id="f3_O5MrYXjnlOcfUvgj--81" value="Error" style="text;html=1;strokeColor=none;fillColor=none;align=center;verticalAlign=middle;spacingLeft=4;spacingRight=4;whiteSpace=wrap;overflow=hidden;rotatable=0;fontColor=#000000;" parent="f3_O5MrYXjnlOcfUvgj--80" vertex="1">
          <mxGeometry y="30" width="160" height="30" as="geometry" />
        </mxCell>
        <mxCell id="f3_O5MrYXjnlOcfUvgj--84" value="Need Help" style="swimlane;fontStyle=1;align=center;verticalAlign=middle;childLayout=stackLayout;horizontal=1;startSize=30;horizontalStack=0;resizeParent=0;resizeLast=1;container=0;fontColor=#000000;collapsible=0;rounded=1;arcSize=30;strokeColor=#4C0099;fillColor=#ffffc0;swimlaneFillColor=#ffffc0;dropTarget=0;" parent="1" vertex="1">
          <mxGeometry x="34" y="420" width="160" height="60" as="geometry" />
        </mxCell>
        <mxCell id="f3_O5MrYXjnlOcfUvgj--85" value="Getting_help" style="text;html=1;strokeColor=none;fillColor=none;align=center;verticalAlign=middle;spacingLeft=4;spacingRight=4;whiteSpace=wrap;overflow=hidden;rotatable=0;fontColor=#000000;" parent="f3_O5MrYXjnlOcfUvgj--84" vertex="1">
          <mxGeometry y="30" width="160" height="30" as="geometry" />
        </mxCell>
        <mxCell id="f3_O5MrYXjnlOcfUvgj--86" value="" style="edgeStyle=orthogonalEdgeStyle;html=1;verticalAlign=bottom;endArrow=open;endSize=8;strokeColor=#4C0099;rounded=0;entryX=0;entryY=0.5;entryDx=0;entryDy=0;" parent="1" source="f3_O5MrYXjnlOcfUvgj--84" target="f3_O5MrYXjnlOcfUvgj--77" edge="1">
          <mxGeometry relative="1" as="geometry">
            <mxPoint x="90" y="529" as="targetPoint" />
            <Array as="points">
              <mxPoint x="20" y="450" />
              <mxPoint x="20" y="265" />
            </Array>
          </mxGeometry>
        </mxCell>
        <mxCell id="f3_O5MrYXjnlOcfUvgj--87" value="" style="edgeStyle=orthogonalEdgeStyle;html=1;verticalAlign=bottom;endArrow=open;endSize=8;strokeColor=#4C0099;rounded=0;exitX=0.5;exitY=1;exitDx=0;exitDy=0;entryX=0.5;entryY=0;entryDx=0;entryDy=0;" parent="1" source="f3_O5MrYXjnlOcfUvgj--81" target="f3_O5MrYXjnlOcfUvgj--84" edge="1">
          <mxGeometry relative="1" as="geometry">
            <mxPoint x="90" y="420" as="targetPoint" />
            <mxPoint x="100" y="490" as="sourcePoint" />
          </mxGeometry>
        </mxCell>
        <mxCell id="f3_O5MrYXjnlOcfUvgj--90" value="" style="edgeStyle=orthogonalEdgeStyle;html=1;align=left;verticalAlign=top;endArrow=open;endSize=8;strokeColor=#ff0000;rounded=0;exitX=1;exitY=0.25;exitDx=0;exitDy=0;entryX=1;entryY=0.5;entryDx=0;entryDy=0;" parent="1" source="f3_O5MrYXjnlOcfUvgj--76" target="f3_O5MrYXjnlOcfUvgj--89" edge="1">
          <mxGeometry x="0.0263" y="-10" relative="1" as="geometry">
            <mxPoint x="80" y="800" as="targetPoint" />
            <mxPoint as="offset" />
            <mxPoint x="663" y="235" as="sourcePoint" />
            <Array as="points">
              <mxPoint x="810" y="235" />
              <mxPoint x="810" y="900" />
            </Array>
          </mxGeometry>
        </mxCell>
        <mxCell id="6Gu7Xn1b_OHaQLQ8QXdP-21" value="Finish" style="edgeLabel;html=1;align=center;verticalAlign=middle;resizable=0;points=[];" vertex="1" connectable="0" parent="f3_O5MrYXjnlOcfUvgj--90">
          <mxGeometry x="-0.9304" relative="1" as="geometry">
            <mxPoint y="-8" as="offset" />
          </mxGeometry>
        </mxCell>
        <mxCell id="f3_O5MrYXjnlOcfUvgj--89" value="" style="ellipse;html=1;shape=endState;fillColor=#000000;strokeColor=#ff0000;" parent="1" vertex="1">
          <mxGeometry x="40" y="885" width="30" height="30" as="geometry" />
        </mxCell>
        <mxCell id="f3_O5MrYXjnlOcfUvgj--98" value="" style="edgeStyle=orthogonalEdgeStyle;html=1;verticalAlign=bottom;endArrow=open;endSize=8;strokeColor=#FF0000;rounded=0;entryX=0.5;entryY=0;entryDx=0;entryDy=0;exitX=1;exitY=0.5;exitDx=0;exitDy=0;" parent="1" source="Co19xIYeGE2DdEXJ1eOR-2" target="f3_O5MrYXjnlOcfUvgj--4" edge="1">
          <mxGeometry relative="1" as="geometry">
            <mxPoint x="665.5" y="106" as="targetPoint" />
            <mxPoint x="802" y="163" as="sourcePoint" />
            <Array as="points">
              <mxPoint x="810" y="76" />
              <mxPoint x="810" y="20" />
              <mxPoint x="17" y="20" />
            </Array>
          </mxGeometry>
        </mxCell>
        <mxCell id="6Gu7Xn1b_OHaQLQ8QXdP-1" value="no" style="edgeLabel;html=1;align=center;verticalAlign=middle;resizable=0;points=[];" vertex="1" connectable="0" parent="f3_O5MrYXjnlOcfUvgj--98">
          <mxGeometry x="-0.8554" relative="1" as="geometry">
            <mxPoint y="-10" as="offset" />
          </mxGeometry>
        </mxCell>
        <mxCell id="Co19xIYeGE2DdEXJ1eOR-2" value="Checking" style="rhombus;whiteSpace=wrap;html=1;fontColor=#000000;fillColor=#ffffc0;strokeColor=#ff0000;" parent="1" vertex="1">
          <mxGeometry x="499" y="56" width="80" height="40" as="geometry" />
        </mxCell>
        <mxCell id="Co19xIYeGE2DdEXJ1eOR-4" value="yes" style="edgeStyle=orthogonalEdgeStyle;html=1;align=left;verticalAlign=top;endArrow=open;endSize=8;strokeColor=#ff0000;rounded=0;entryX=0.5;entryY=0;entryDx=0;entryDy=0;" parent="1" source="Co19xIYeGE2DdEXJ1eOR-2" target="f3_O5MrYXjnlOcfUvgj--76" edge="1">
          <mxGeometry x="-0.9524" y="11" relative="1" as="geometry">
            <mxPoint x="539" y="160" as="targetPoint" />
            <mxPoint as="offset" />
          </mxGeometry>
        </mxCell>
        <mxCell id="6Gu7Xn1b_OHaQLQ8QXdP-2" value="situation" style="swimlane;fontStyle=1;align=center;verticalAlign=middle;childLayout=stackLayout;horizontal=1;startSize=30;horizontalStack=0;resizeParent=0;resizeLast=1;container=0;fontColor=#000000;collapsible=0;rounded=1;arcSize=30;strokeColor=#ff0000;fillColor=#ffffc0;swimlaneFillColor=#ffffc0;dropTarget=0;" vertex="1" parent="1">
          <mxGeometry x="124" y="115" width="269" height="51" as="geometry" />
        </mxCell>
        <mxCell id="6Gu7Xn1b_OHaQLQ8QXdP-3" value="&lt;span style=&quot;text-wrap: nowrap;&quot;&gt;real_time_needs&lt;/span&gt;" style="text;html=1;strokeColor=none;fillColor=none;align=center;verticalAlign=middle;spacingLeft=4;spacingRight=4;whiteSpace=wrap;overflow=hidden;rotatable=0;fontColor=#000000;" vertex="1" parent="6Gu7Xn1b_OHaQLQ8QXdP-2">
          <mxGeometry y="30" width="269" height="21" as="geometry" />
        </mxCell>
        <mxCell id="6Gu7Xn1b_OHaQLQ8QXdP-4" value="" style="edgeStyle=orthogonalEdgeStyle;html=1;verticalAlign=bottom;endArrow=open;endSize=8;strokeColor=#ff0000;rounded=0;entryX=0;entryY=0;entryDx=0;entryDy=0;exitX=1;exitY=0.5;exitDx=0;exitDy=0;" edge="1" parent="1" source="f3_O5MrYXjnlOcfUvgj--4" target="6Gu7Xn1b_OHaQLQ8QXdP-3">
          <mxGeometry relative="1" as="geometry">
            <mxPoint x="133" y="86" as="targetPoint" />
            <Array as="points">
              <mxPoint x="32" y="145" />
            </Array>
            <mxPoint x="38" y="86" as="sourcePoint" />
          </mxGeometry>
        </mxCell>
        <mxCell id="6Gu7Xn1b_OHaQLQ8QXdP-6" value="" style="edgeStyle=orthogonalEdgeStyle;html=1;verticalAlign=bottom;endArrow=open;endSize=8;strokeColor=#ff0000;rounded=0;exitX=1;exitY=0;exitDx=0;exitDy=0;entryX=0;entryY=0.5;entryDx=0;entryDy=0;" edge="1" parent="1" source="6Gu7Xn1b_OHaQLQ8QXdP-3" target="Co19xIYeGE2DdEXJ1eOR-2">
          <mxGeometry relative="1" as="geometry">
            <mxPoint x="509" y="86" as="targetPoint" />
            <Array as="points">
              <mxPoint x="470" y="145" />
              <mxPoint x="470" y="76" />
            </Array>
            <mxPoint x="402" y="86" as="sourcePoint" />
          </mxGeometry>
        </mxCell>
        <mxCell id="6Gu7Xn1b_OHaQLQ8QXdP-7" value="Computational State" style="swimlane;fontStyle=1;align=center;verticalAlign=middle;childLayout=stackLayout;horizontal=1;startSize=30;horizontalStack=0;resizeParent=0;resizeLast=1;container=0;fontColor=#000000;collapsible=0;rounded=1;arcSize=30;strokeColor=#FF0000;fillColor=#ffffc0;swimlaneFillColor=#ffffc0;dropTarget=0;" vertex="1" parent="1">
          <mxGeometry x="274" y="340" width="160" height="60" as="geometry" />
        </mxCell>
        <mxCell id="6Gu7Xn1b_OHaQLQ8QXdP-8" value="mixing" style="text;html=1;strokeColor=none;fillColor=none;align=center;verticalAlign=middle;spacingLeft=4;spacingRight=4;whiteSpace=wrap;overflow=hidden;rotatable=0;fontColor=#000000;" vertex="1" parent="6Gu7Xn1b_OHaQLQ8QXdP-7">
          <mxGeometry y="30" width="160" height="30" as="geometry" />
        </mxCell>
        <mxCell id="6Gu7Xn1b_OHaQLQ8QXdP-9" value="Computational State" style="swimlane;fontStyle=1;align=center;verticalAlign=middle;childLayout=stackLayout;horizontal=1;startSize=30;horizontalStack=0;resizeParent=0;resizeLast=1;container=0;fontColor=#000000;collapsible=0;rounded=1;arcSize=30;strokeColor=#FF0000;fillColor=#ffffc0;swimlaneFillColor=#ffffc0;dropTarget=0;" vertex="1" parent="1">
          <mxGeometry x="446" y="340" width="160" height="60" as="geometry" />
        </mxCell>
        <mxCell id="6Gu7Xn1b_OHaQLQ8QXdP-22" value="cutting" style="text;html=1;strokeColor=none;fillColor=none;align=center;verticalAlign=middle;spacingLeft=4;spacingRight=4;whiteSpace=wrap;overflow=hidden;rotatable=0;fontColor=#000000;" vertex="1" parent="6Gu7Xn1b_OHaQLQ8QXdP-9">
          <mxGeometry y="30" width="160" height="30" as="geometry" />
        </mxCell>
        <mxCell id="6Gu7Xn1b_OHaQLQ8QXdP-11" value="Computational State" style="swimlane;fontStyle=1;align=center;verticalAlign=middle;childLayout=stackLayout;horizontal=1;startSize=30;horizontalStack=0;resizeParent=0;resizeLast=1;container=0;fontColor=#000000;collapsible=0;rounded=1;arcSize=30;strokeColor=#FF0000;fillColor=#ffffc0;swimlaneFillColor=#ffffc0;dropTarget=0;" vertex="1" parent="1">
          <mxGeometry x="614" y="340" width="160" height="60" as="geometry" />
        </mxCell>
        <mxCell id="6Gu7Xn1b_OHaQLQ8QXdP-12" value="cooking" style="text;html=1;strokeColor=none;fillColor=none;align=center;verticalAlign=middle;spacingLeft=4;spacingRight=4;whiteSpace=wrap;overflow=hidden;rotatable=0;fontColor=#000000;" vertex="1" parent="6Gu7Xn1b_OHaQLQ8QXdP-11">
          <mxGeometry y="30" width="160" height="30" as="geometry" />
        </mxCell>
        <mxCell id="6Gu7Xn1b_OHaQLQ8QXdP-14" value="" style="endArrow=classic;html=1;rounded=0;exitX=0.5;exitY=1;exitDx=0;exitDy=0;entryX=0.5;entryY=0;entryDx=0;entryDy=0;strokeColor=#FF0000;edgeStyle=orthogonalEdgeStyle;" edge="1" parent="1" source="f3_O5MrYXjnlOcfUvgj--77" target="6Gu7Xn1b_OHaQLQ8QXdP-7">
          <mxGeometry width="50" height="50" relative="1" as="geometry">
            <mxPoint x="390" y="590" as="sourcePoint" />
            <mxPoint x="440" y="540" as="targetPoint" />
          </mxGeometry>
        </mxCell>
        <mxCell id="6Gu7Xn1b_OHaQLQ8QXdP-15" value="" style="endArrow=classic;html=1;rounded=0;exitX=0.5;exitY=1;exitDx=0;exitDy=0;entryX=0.5;entryY=0;entryDx=0;entryDy=0;edgeStyle=orthogonalEdgeStyle;strokeColor=#FF0000;" edge="1" parent="1" source="f3_O5MrYXjnlOcfUvgj--77" target="6Gu7Xn1b_OHaQLQ8QXdP-11">
          <mxGeometry width="50" height="50" relative="1" as="geometry">
            <mxPoint x="390" y="490" as="sourcePoint" />
            <mxPoint x="440" y="440" as="targetPoint" />
          </mxGeometry>
        </mxCell>
        <mxCell id="6Gu7Xn1b_OHaQLQ8QXdP-16" value="" style="endArrow=classic;html=1;rounded=0;exitX=0.5;exitY=1;exitDx=0;exitDy=0;entryX=0.5;entryY=0;entryDx=0;entryDy=0;edgeStyle=orthogonalEdgeStyle;strokeColor=#FF0000;" edge="1" parent="1" source="f3_O5MrYXjnlOcfUvgj--77" target="6Gu7Xn1b_OHaQLQ8QXdP-9">
          <mxGeometry width="50" height="50" relative="1" as="geometry">
            <mxPoint x="390" y="490" as="sourcePoint" />
            <mxPoint x="440" y="440" as="targetPoint" />
          </mxGeometry>
        </mxCell>
        <mxCell id="6Gu7Xn1b_OHaQLQ8QXdP-17" value="" style="endArrow=classic;html=1;rounded=0;exitX=0.5;exitY=1;exitDx=0;exitDy=0;entryX=0.5;entryY=0;entryDx=0;entryDy=0;strokeColor=#FF0000;" edge="1" parent="1" source="f3_O5MrYXjnlOcfUvgj--64" target="f3_O5MrYXjnlOcfUvgj--65">
          <mxGeometry width="50" height="50" relative="1" as="geometry">
            <mxPoint x="390" y="690" as="sourcePoint" />
            <mxPoint x="440" y="640" as="targetPoint" />
          </mxGeometry>
        </mxCell>
        <mxCell id="6Gu7Xn1b_OHaQLQ8QXdP-18" value="" style="endArrow=classic;html=1;rounded=0;exitX=0.5;exitY=1;exitDx=0;exitDy=0;entryX=0.5;entryY=0;entryDx=0;entryDy=0;edgeStyle=orthogonalEdgeStyle;strokeColor=#FF0000;" edge="1" parent="1" source="6Gu7Xn1b_OHaQLQ8QXdP-8" target="f3_O5MrYXjnlOcfUvgj--52">
          <mxGeometry width="50" height="50" relative="1" as="geometry">
            <mxPoint x="390" y="490" as="sourcePoint" />
            <mxPoint x="440" y="440" as="targetPoint" />
          </mxGeometry>
        </mxCell>
        <mxCell id="6Gu7Xn1b_OHaQLQ8QXdP-19" value="" style="endArrow=classic;html=1;rounded=0;exitX=0.5;exitY=1;exitDx=0;exitDy=0;entryX=0.5;entryY=0;entryDx=0;entryDy=0;edgeStyle=orthogonalEdgeStyle;strokeColor=#FF0000;" edge="1" parent="1" source="6Gu7Xn1b_OHaQLQ8QXdP-12" target="f3_O5MrYXjnlOcfUvgj--52">
          <mxGeometry width="50" height="50" relative="1" as="geometry">
            <mxPoint x="364" y="410" as="sourcePoint" />
            <mxPoint x="594" y="530" as="targetPoint" />
          </mxGeometry>
        </mxCell>
        <mxCell id="6Gu7Xn1b_OHaQLQ8QXdP-20" value="" style="endArrow=classic;html=1;rounded=0;exitX=0;exitY=0;exitDx=0;exitDy=0;entryX=0.5;entryY=0;entryDx=0;entryDy=0;edgeStyle=orthogonalEdgeStyle;strokeColor=#FF0000;" edge="1" parent="1" target="f3_O5MrYXjnlOcfUvgj--52">
          <mxGeometry width="50" height="50" relative="1" as="geometry">
            <mxPoint x="526" y="400" as="sourcePoint" />
            <mxPoint x="604" y="540" as="targetPoint" />
            <Array as="points">
              <mxPoint x="526" y="460" />
              <mxPoint x="584" y="460" />
            </Array>
          </mxGeometry>
        </mxCell>
      </root>
    </mxGraphModel>
  </diagram>
</mxfile>
